<?xml version="1.0" encoding="utf-8"?>
<!-- Generator: Adobe Illustrator 25.0.1, SVG Export Plug-In . SVG Version: 6.00 Build 0)  -->
<svg version="1.1" id="Layer_1" xmlns="http://www.w3.org/2000/svg" xmlns:xlink="http://www.w3.org/1999/xlink" x="0px" y="0px"
	 viewBox="0 0 778 894" style="enable-background:new 0 0 778 894;" xml:space="preserve">
<style type="text/css">
	.st0{fill:url(#合并形状_2_);}
	.st1{fill:url(#合并形状_3_);}
	.st2{fill:url(#合并形状-copy-11_1_);}
	.st3{fill:url(#路径-10-copy_1_);}
</style>
<g id="Page-1">
	<g id="画板" transform="translate(-265.000000, -558.000000)">
		<g id="编组-3备份" transform="translate(265.000000, 558.000000)">
			<g id="分组-6备份">
				<g id="分组-32-copy-2">
					
						<linearGradient id="合并形状_2_" gradientUnits="userSpaceOnUse" x1="244.8415" y1="727.1881" x2="244.8415" y2="726.1881" gradientTransform="matrix(372.048 0 0 -893.745 -90906.7578 649920.75)">
						<stop  offset="0" style="stop-color:#4364BF"/>
						<stop  offset="1" style="stop-color:#20348B"/>
					</linearGradient>
					<path id="合并形状" class="st0" d="M372,89.3l-293.1,0v356.6l0.1,1.8c4.2,60.2,21.7,109.8,52.5,148.9
						c52.2,89.5,206.3,186.1,240.5,204l0,93.1l-0.6-0.3c-23.3-9.7-236.7-139.1-305.9-258.4C27.2,586.1,5.4,524,0.2,448.7L0,446.4V0
						h372V89.3z"/>
					
						<linearGradient id="合并形状_3_" gradientUnits="userSpaceOnUse" x1="246.1585" y1="727.1881" x2="246.1585" y2="726.1881" gradientTransform="matrix(-372.048 0 0 -893.745 92174.6797 649920.75)">
						<stop  offset="0" style="stop-color:#05BAEA"/>
						<stop  offset="1" style="stop-color:#0284D1"/>
					</linearGradient>
					<path id="合并形状_1_" class="st1" d="M405.9,89.3l293.1,0v356.6l-0.1,1.8c-4.2,60.2-21.7,109.8-52.5,148.9
						c-52.2,89.5-206.3,186.1-240.5,204l0,93.1l0.6-0.3c23.3-9.7,236.7-139.1,305.9-258.4c38.3-48.9,60.1-111.1,65.4-186.4l0.2-2.3
						V0h-372V89.3z"/>
				</g>
			</g>
			<g id="编组-2" transform="translate(188.760000, 245.960000)">
				
					<linearGradient id="合并形状-copy-11_1_" gradientUnits="userSpaceOnUse" x1="55.6943" y1="481.2043" x2="56.3579" y2="480.9843" gradientTransform="matrix(400.4 0 0 -320.32 -22273.4961 154254.125)">
					<stop  offset="0" style="stop-color:#05BCEB"/>
					<stop  offset="1" style="stop-color:#0287D2"/>
				</linearGradient>
				<path id="合并形状-copy-11" class="st2" d="M232.4,0c-16.5,74.1-23.5,111.2-21,111.2c3.8,0,87.2-1.9,119.4,35.3
					c30.8,23.1,24.4,117.5-84.6,162.8c-113.4,30.2-173.3-9.2-201.7-29.6C-1.7,240.2-11,178.9,12.3,129
					C30.7,87.1,66.1,52.6,118.4,25.5l0,0l26.2,10.2c-0.5,1.7-2.6,7.6-6.3,17.9c-62.9,22.8-85.7,57-86.9,56.7
					c-13.9,12.1-38.2,51.7-24.9,102.5c21.9,61.9,92.3,79.6,150.5,70.9c105.8-17.4,111-89.8,90.8-102.5
					c-13.2-12.5-37.1-14.6-71.6-6.5c-8.5,40.5-14.9,70.5-19.2,90c-36.3,3-62.1-0.8-77.3-11.5l0,0l62.5-227.1l-3.5-1.1
					c-3-1.1-9.9-3.5-20.8-7.4C154.5,8,186,2.1,232.4,0z M249,1.8c59,5.8,101.7,27,127.8,63.5c36.4,54.5,30.7,111.5-17,171
					c-9.4,10.2-14.8,16.1-16.5,17.5c60.5-108.3,26.5-175.1-102-200.5l0,0L249,1.8z"/>
				
					<linearGradient id="路径-10-copy_1_" gradientUnits="userSpaceOnUse" x1="55.1267" y1="481.6314" x2="55.3745" y2="480.7328" gradientTransform="matrix(159.088 0 0 -247.0445 -8460.7959 119007.5469)">
					<stop  offset="0" style="stop-color:#05BCEB"/>
					<stop  offset="1" style="stop-color:#22378E"/>
				</linearGradient>
				<path id="路径-10-copy" class="st3" d="M249,1.9l-7.6,50.4c128.5,24.9,162.5,90.4,102,196.6c1.6-1.4,7.1-7.1,16.5-17.2
					c47.8-58.3,53.4-114.2,17-167.6C350.6,28.4,308,7.6,249,1.9z"/>
			</g>
		</g>
	</g>
</g>
</svg>
