<?xml version="1.0" encoding="UTF-8"?>
<svg width="778px" height="894px" viewBox="0 0 778 894" version="1.1" xmlns="http://www.w3.org/2000/svg" xmlns:xlink="http://www.w3.org/1999/xlink">
    <title>库博logo_svg</title>
    <defs>
        <linearGradient x1="50%" y1="0%" x2="50%" y2="100%" id="linearGradient-1">
            <stop stop-color="#4364BF" offset="0%"></stop>
            <stop stop-color="#20348B" offset="100%"></stop>
        </linearGradient>
        <linearGradient x1="50%" y1="0%" x2="50%" y2="100%" id="linearGradient-2">
            <stop stop-color="#05BAEA" offset="0%"></stop>
            <stop stop-color="#0284D1" offset="100%"></stop>
        </linearGradient>
        <linearGradient x1="0%" y1="55.794857%" x2="66.3601676%" y2="77.8012857%" id="linearGradient-3">
            <stop stop-color="#05BCEB" offset="0%"></stop>
            <stop stop-color="#0287D2" offset="100%"></stop>
        </linearGradient>
        <linearGradient x1="37.0171443%" y1="10.1442959%" x2="61.7969929%" y2="100%" id="linearGradient-4">
            <stop stop-color="#05BCEB" offset="0%"></stop>
            <stop stop-color="#22378E" offset="100%"></stop>
        </linearGradient>
    </defs>
    <g id="Page-1" stroke="none" stroke-width="1" fill="none" fill-rule="evenodd">
        <g id="画板" transform="translate(-265.000000, -558.000000)" fill-rule="nonzero">
            <g id="编组-3备份" transform="translate(265.000000, 558.000000)">
                <g id="分组-6备份">
                    <rect id="矩形" fill="#FFFFFF" x="0" y="89.6290909" width="777.92" height="365.985455"></rect>
                    <polygon id="路径-8" fill="#FFFFFF" points="36.7495652 408.040875 95.7223188 595.702906 164.292161 665.934845 227.547725 725.814142 271.992474 758.690241 291.447292 788.203049 321.566953 788.203049 371.840856 800.686669 406.074883 800.686669 474.577585 782.236529 658.24 619.433688 742.969505 442.51446 751.287109 304.718953 36.7495652 264.63242"></polygon>
                    <g id="分组-32-copy-2">
                        <path d="M372.048,89.26 L78.9194203,89.2602469 L78.9194203,445.900158 L79.0429351,447.727119 C83.2531777,507.910367 100.754687,557.551829 131.547464,596.651503 C183.70328,686.163903 337.819054,782.706271 372.046679,800.647478 L372.04,893.745 L371.410141,893.494608 C348.134924,883.814582 134.747108,754.438209 65.5368093,635.053097 C27.1910873,586.115774 5.39675449,523.984306 0.153810845,448.658692 L1.42108547e-13,446.372059 L1.42108547e-13,-4.54747351e-13 L372.048,-4.54747351e-13 L372.048,89.26 Z" id="合并形状" fill="url(#linearGradient-1)"></path>
                        <path d="M777.919304,89.26 L484.790725,89.2602469 L484.790725,445.900158 L484.914239,447.727119 C489.124482,507.910367 506.625992,557.551829 537.418768,596.651503 C589.574585,686.163903 743.690359,782.706271 777.917983,800.647478 L777.911304,893.745 L777.281445,893.494608 C754.006228,883.814582 540.618413,754.438209 471.408114,635.053097 C433.062392,586.115774 411.268059,523.984306 406.025115,448.658692 L405.871304,446.372059 L405.871304,-4.54747351e-13 L777.919304,-4.54747351e-13 L777.919304,89.26 Z" id="合并形状" fill="url(#linearGradient-2)" transform="translate(591.895652, 446.874048) scale(-1, 1) translate(-591.895652, -446.874048) "></path>
                    </g>
                </g>
                <g id="编组-2" transform="translate(188.760000, 245.960000)">
                    <path d="M232.362477,-6.53699317e-13 C215.825718,74.100629 208.835535,111.150943 211.39193,111.150943 C215.226523,111.150943 298.613425,109.206802 330.759163,146.492717 C361.541064,169.60385 355.14309,263.987236 246.169706,309.305469 C132.761531,339.54083 72.8451672,300.116889 44.5184742,279.669035 C-1.66272693,240.201029 -10.9961986,178.943836 12.259547,128.97782 C30.6964007,87.0821341 66.0838037,52.5770055 118.421756,25.4624337 L118.421756,25.4624337 L144.642688,35.6308387 C144.128079,37.2906148 142.028203,43.2461263 138.343059,53.4973733 C75.4376865,76.2533438 52.6662424,110.471463 51.4694056,110.235276 C37.5675429,122.382193 13.2606221,161.93921 26.6132388,212.731001 C48.5227748,274.67825 118.919974,292.298022 177.071399,283.633109 C282.88198,266.265389 288.105384,193.882702 267.887191,181.130334 C254.694772,168.655281 230.815867,166.495515 196.250477,174.651038 C187.724793,215.106097 181.331767,245.113967 177.071399,264.674648 C140.774771,267.650494 115.001339,263.832128 99.7511018,253.219549 L99.7511018,253.219549 L162.212995,26.1335413 L158.732194,25.001956 C155.769946,23.9499811 148.82636,21.486609 137.901435,17.6118398 C154.527261,7.98807624 186.014275,2.11746299 232.362477,-6.53699317e-13 Z M248.952264,1.80489631 C308.000543,7.63026965 350.608553,28.7902112 376.776292,65.284721 C413.186109,119.801755 407.508711,176.787302 359.744098,236.241362 C350.390524,246.478508 344.901156,252.309546 343.275994,253.734476 C403.769756,145.454632 369.781755,78.6205076 241.311992,53.2321029 L241.311992,53.2321029 Z" id="合并形状-copy-11" fill="url(#linearGradient-3)"></path>
                    <path d="M248.952264,1.93381747 L241.311992,52.363827 C369.781755,77.2599389 403.769756,142.798119 343.275994,248.978368 C344.901156,247.581068 350.390524,241.863096 359.744098,231.824453 C407.508711,173.523234 413.186109,117.642663 376.776292,64.1827393 C350.608553,28.3958748 308.000543,7.64623415 248.952264,1.93381747 Z" id="路径-10-copy" fill="url(#linearGradient-4)"></path>
                </g>
            </g>
        </g>
    </g>
</svg>